<?xml version="1.0" encoding="UTF-8" standalone="no"?>
<!-- Created with Inkscape (http://www.inkscape.org/) -->

<svg
   xmlns:dc="http://purl.org/dc/elements/1.1/"
   xmlns:cc="http://creativecommons.org/ns#"
   xmlns:rdf="http://www.w3.org/1999/02/22-rdf-syntax-ns#"
   xmlns:svg="http://www.w3.org/2000/svg"
   xmlns="http://www.w3.org/2000/svg"
   xmlns:sodipodi="http://sodipodi.sourceforge.net/DTD/sodipodi-0.dtd"
   xmlns:inkscape="http://www.inkscape.org/namespaces/inkscape"
   id="svg3294"
   height="22"
   width="22"
   version="1.0"
   inkscape:version="0.48.4 r9939"
   sodipodi:docname="scrsvr-on-dark.svg">
  <defs
     id="defs3037" />
  <sodipodi:namedview
     pagecolor="#ffffff"
     bordercolor="#666666"
     borderopacity="1"
     objecttolerance="10"
     gridtolerance="10"
     guidetolerance="10"
     inkscape:pageopacity="0"
     inkscape:pageshadow="2"
     inkscape:window-width="1301"
     inkscape:window-height="744"
     id="namedview3035"
     showgrid="false"
     inkscape:zoom="10.727273"
     inkscape:cx="-5.4067794"
     inkscape:cy="25.224578"
     inkscape:window-x="65"
     inkscape:window-y="24"
     inkscape:window-maximized="1"
     inkscape:current-layer="svg3294" />
  <metadata
     id="metadata15">
    <rdf:RDF>
      <cc:Work
         rdf:about="">
        <dc:format>image/svg+xml</dc:format>
        <dc:type
           rdf:resource="http://purl.org/dc/dcmitype/StillImage" />
        <dc:title></dc:title>
      </cc:Work>
    </rdf:RDF>
  </metadata>
  <path
     id="rect2722-3"
     style="opacity:.3;fill:#fff"
     d="m4 4c-0.554 0-1 0.4894-1 1.0938v9.8125c0 0.605 0.446 1.094 1 1.094h14c0.554 0 1-0.48939 1-1.0938v-9.8125c0-0.6041-0.446-1.0935-1-1.0935h-14zm1 2h12v8h-12v-8zm3 11v1h-2v2h10v-2h-2v-1h-6z" />
  <path
     id="rect2722"
     style="fill:#dfd8c8;fill-opacity:1"
     d="m4 3c-0.554 0-1 0.4894-1 1.0938v9.8122c0 0.605 0.446 1.094 1 1.094h14c0.554 0 1-0.489 1-1.094v-9.8122c0-0.6044-0.446-1.0938-1-1.0938h-14zm1 2h12v8h-12v-8zm3 11v1h-2v2h10v-2h-2v-1h-6z" />
  <text
     xml:space="preserve"
     style="font-size:40px;font-style:normal;font-weight:normal;line-height:125%;letter-spacing:0px;word-spacing:0px;fill:#000000;fill-opacity:1;stroke:none;font-family:Sans"
     x="8.4830503"
     y="7.0847459"
     id="text3039"
     sodipodi:linespacing="125%"><tspan
       sodipodi:role="line"
       id="tspan3041" /></text>
  <text
     xml:space="preserve"
     style="font-size:8px;font-style:normal;font-weight:bold;line-height:125%;letter-spacing:0px;word-spacing:0px;fill:#dfd8c8;fill-opacity:1;stroke:none;font-family:Sans;-inkscape-font-specification:Sans Bold"
     x="7.9237289"
     y="12.025423"
     id="text2987"
     sodipodi:linespacing="125%"><tspan
       sodipodi:role="line"
       id="tspan2989"
       x="7.9237289"
       y="12.025423">1</tspan></text>
</svg>
